<mxfile host="Electron" compressed="false" modified="2023-05-05T13:17:18.527Z" agent="Mozilla/5.0 (Windows NT 10.0; Win64; x64) AppleWebKit/537.36 (KHTML, like Gecko) draw.io/21.2.8 Chrome/112.0.5615.165 Electron/24.2.0 Safari/537.36" version="21.2.8" etag="0QFWE61tY_BaUaJai2jt" type="device">
  <diagram id="ETWsS70P1tHz5V-jA7J0" name="Page-1">
    <mxGraphModel dx="1434" dy="854" grid="1" gridSize="10" guides="1" tooltips="1" connect="1" arrows="1" fold="1" page="1" pageScale="1" pageWidth="827" pageHeight="1169" math="0" shadow="0">
      <root>
        <mxCell id="0" />
        <mxCell id="1" parent="0" />
        <mxCell id="x4GbbwbR9XK_4-UF2UaD-79" style="edgeStyle=none;rounded=0;orthogonalLoop=1;jettySize=auto;html=1;exitX=0.5;exitY=0;exitDx=0;exitDy=0;entryX=0.5;entryY=1;entryDx=0;entryDy=0;endArrow=classicThin;endFill=1;" parent="1" source="x4GbbwbR9XK_4-UF2UaD-80" target="x4GbbwbR9XK_4-UF2UaD-83" edge="1">
          <mxGeometry relative="1" as="geometry" />
        </mxCell>
        <mxCell id="x4GbbwbR9XK_4-UF2UaD-80" value="" style="ellipse;whiteSpace=wrap;html=1;aspect=fixed;fillColor=#00FF00;strokeColor=#005700;fontColor=#ffffff;" parent="1" vertex="1">
          <mxGeometry x="250" y="400" width="30" height="30" as="geometry" />
        </mxCell>
        <mxCell id="x4GbbwbR9XK_4-UF2UaD-83" value="" style="ellipse;whiteSpace=wrap;html=1;aspect=fixed;fillColor=#00FF00;strokeColor=#005700;fontColor=#ffffff;" parent="1" vertex="1">
          <mxGeometry x="250" y="350" width="30" height="30" as="geometry" />
        </mxCell>
        <mxCell id="x4GbbwbR9XK_4-UF2UaD-84" style="edgeStyle=none;rounded=0;orthogonalLoop=1;jettySize=auto;html=1;entryX=0;entryY=1;entryDx=0;entryDy=0;endArrow=classicThin;endFill=1;exitX=0.5;exitY=0;exitDx=0;exitDy=0;" parent="1" source="x4GbbwbR9XK_4-UF2UaD-83" target="x4GbbwbR9XK_4-UF2UaD-86" edge="1">
          <mxGeometry relative="1" as="geometry">
            <mxPoint x="170" y="340" as="sourcePoint" />
          </mxGeometry>
        </mxCell>
        <mxCell id="x4GbbwbR9XK_4-UF2UaD-85" style="edgeStyle=none;rounded=0;orthogonalLoop=1;jettySize=auto;html=1;exitX=0.5;exitY=0;exitDx=0;exitDy=0;entryX=1;entryY=1;entryDx=0;entryDy=0;endArrow=classicThin;endFill=1;" parent="1" source="x4GbbwbR9XK_4-UF2UaD-83" target="x9lW6-Z4g28vlHfjR3vW-7" edge="1">
          <mxGeometry relative="1" as="geometry">
            <mxPoint x="265" y="280" as="targetPoint" />
            <Array as="points" />
          </mxGeometry>
        </mxCell>
        <mxCell id="x4GbbwbR9XK_4-UF2UaD-86" value="" style="ellipse;whiteSpace=wrap;html=1;aspect=fixed;fillColor=#99FF99;strokeColor=#005700;fontColor=#ffffff;" parent="1" vertex="1">
          <mxGeometry x="330" y="260" width="30" height="30" as="geometry" />
        </mxCell>
        <mxCell id="x4GbbwbR9XK_4-UF2UaD-103" value="" style="ellipse;whiteSpace=wrap;html=1;aspect=fixed;fillColor=#006300;strokeColor=#2D7600;fontColor=#ffffff;" parent="1" vertex="1">
          <mxGeometry x="250" y="450" width="30" height="30" as="geometry" />
        </mxCell>
        <mxCell id="x4GbbwbR9XK_4-UF2UaD-105" value="Принятое&lt;br&gt;Изменение A" style="text;html=1;strokeColor=none;fillColor=none;align=center;verticalAlign=middle;whiteSpace=wrap;rounded=0;" parent="1" vertex="1">
          <mxGeometry x="160" y="400" width="80" height="30" as="geometry" />
        </mxCell>
        <mxCell id="x9lW6-Z4g28vlHfjR3vW-1" style="edgeStyle=none;rounded=0;orthogonalLoop=1;jettySize=auto;html=1;exitX=0.5;exitY=0;exitDx=0;exitDy=0;endArrow=classicThin;endFill=1;" edge="1" parent="1" source="x4GbbwbR9XK_4-UF2UaD-103">
          <mxGeometry relative="1" as="geometry">
            <mxPoint x="275.25" y="410" as="sourcePoint" />
            <mxPoint x="265.25" y="430" as="targetPoint" />
          </mxGeometry>
        </mxCell>
        <mxCell id="x9lW6-Z4g28vlHfjR3vW-2" value="Релиз X" style="text;html=1;strokeColor=none;fillColor=none;align=center;verticalAlign=middle;whiteSpace=wrap;rounded=0;" vertex="1" parent="1">
          <mxGeometry x="160" y="450" width="80" height="30" as="geometry" />
        </mxCell>
        <mxCell id="x9lW6-Z4g28vlHfjR3vW-3" value="Принятое&lt;br&gt;Изменение B" style="text;html=1;strokeColor=none;fillColor=none;align=center;verticalAlign=middle;whiteSpace=wrap;rounded=0;" vertex="1" parent="1">
          <mxGeometry x="145" y="350" width="110" height="30" as="geometry" />
        </mxCell>
        <mxCell id="x9lW6-Z4g28vlHfjR3vW-5" value="Версия M.X&amp;nbsp;&lt;br&gt;Например: 3.0.1234" style="text;html=1;strokeColor=none;fillColor=none;align=center;verticalAlign=middle;whiteSpace=wrap;rounded=0;" vertex="1" parent="1">
          <mxGeometry x="306.5" y="445" width="125" height="40" as="geometry" />
        </mxCell>
        <mxCell id="x9lW6-Z4g28vlHfjR3vW-6" value="Версия M.(X+1).00000&lt;br&gt;Например: 3.0.1235.00000" style="text;html=1;strokeColor=none;fillColor=none;align=center;verticalAlign=middle;whiteSpace=wrap;rounded=0;" vertex="1" parent="1">
          <mxGeometry x="289" y="350" width="161" height="30" as="geometry" />
        </mxCell>
        <mxCell id="x9lW6-Z4g28vlHfjR3vW-7" value="" style="ellipse;whiteSpace=wrap;html=1;aspect=fixed;fillColor=#99FF99;strokeColor=#005700;fontColor=#ffffff;" vertex="1" parent="1">
          <mxGeometry x="140" y="210" width="30" height="30" as="geometry" />
        </mxCell>
        <mxCell id="x9lW6-Z4g28vlHfjR3vW-8" value="Изменение C&lt;br&gt;Например: 23456" style="text;html=1;strokeColor=none;fillColor=none;align=center;verticalAlign=middle;whiteSpace=wrap;rounded=0;" vertex="1" parent="1">
          <mxGeometry x="20" y="210" width="120" height="30" as="geometry" />
        </mxCell>
        <mxCell id="x9lW6-Z4g28vlHfjR3vW-10" value="Развитие Мажорной версии M&lt;br style=&quot;font-size: 14px;&quot;&gt;Например: 3.0" style="text;html=1;strokeColor=none;fillColor=none;align=center;verticalAlign=middle;whiteSpace=wrap;rounded=0;fontSize=14;" vertex="1" parent="1">
          <mxGeometry x="155" y="120" width="220" height="40" as="geometry" />
        </mxCell>
        <mxCell id="x9lW6-Z4g28vlHfjR3vW-11" value="Версия M.(X+1).С&lt;br&gt;Например: 3.0.1235.23456" style="text;html=1;strokeColor=none;fillColor=none;align=center;verticalAlign=middle;whiteSpace=wrap;rounded=0;" vertex="1" parent="1">
          <mxGeometry x="170" y="210" width="170" height="30" as="geometry" />
        </mxCell>
        <mxCell id="x9lW6-Z4g28vlHfjR3vW-12" value="Изменение D" style="text;html=1;strokeColor=none;fillColor=none;align=center;verticalAlign=middle;whiteSpace=wrap;rounded=0;" vertex="1" parent="1">
          <mxGeometry x="240" y="260" width="80" height="30" as="geometry" />
        </mxCell>
        <mxCell id="x9lW6-Z4g28vlHfjR3vW-13" value="Версия M.(X+1).D&lt;br&gt;Например: 3.0.1235.23468" style="text;html=1;strokeColor=none;fillColor=none;align=center;verticalAlign=middle;whiteSpace=wrap;rounded=0;" vertex="1" parent="1">
          <mxGeometry x="370" y="260" width="170" height="30" as="geometry" />
        </mxCell>
      </root>
    </mxGraphModel>
  </diagram>
</mxfile>
